<?xml version="1.0" standalone="no"?>
<!DOCTYPE svg PUBLIC "-//W3C//DTD SVG 20010904//EN"
 "http://www.w3.org/TR/2001/REC-SVG-20010904/DTD/svg10.dtd">
<svg version="1.0" xmlns="http://www.w3.org/2000/svg"
 width="146.000000pt" height="146.000000pt" viewBox="0 0 146.000000 146.000000"
 preserveAspectRatio="xMidYMid meet">
<metadata>
Created by potrace 1.14, written by Peter Selinger 2001-2017
</metadata>
<g transform="translate(0.000000,146.000000) scale(0.100000,-0.100000)"
fill="#000000" stroke="none">
<path d="M251 1363 c-54 -27 -185 -162 -215 -221 -52 -103 -44 -168 21 -160
21 2 30 10 36 33 22 76 62 138 131 201 74 67 96 76 118 46 26 -38 270 -242
288 -242 24 0 50 26 50 50 0 11 -49 62 -122 127 -67 59 -131 119 -142 131 -46
52 -105 65 -165 35z"/>
<path d="M905 1351 c-123 -20 -159 -40 -153 -82 6 -39 29 -44 125 -26 113 22
207 21 311 -2 45 -11 91 -17 102 -14 22 6 28 18 -88 -179 -23 -40 -88 -138
-143 -218 -144 -205 -244 -368 -300 -484 -63 -135 -72 -170 -51 -197 28 -33
83 -33 242 -1 362 75 486 104 499 117 19 18 6 64 -21 74 -21 8 -221 -27 -393
-69 -153 -37 -227 -49 -216 -36 5 6 17 31 27 56 25 64 113 215 207 355 106
157 336 522 355 561 21 45 9 82 -31 99 -79 32 -376 61 -472 46z"/>
<path d="M264 1216 c-20 -14 -21 -27 -28 -353 -7 -349 1 -539 29 -687 8 -44
20 -85 26 -93 18 -21 57 -16 73 9 12 20 12 33 0 95 -28 146 -36 331 -28 674
l7 336 -24 16 c-29 21 -29 21 -55 3z"/>
</g>
</svg>
